<?xml version="1.0" encoding="UTF-8"?>
<svg width="24px" height="24px" viewBox="0 0 24 24" version="1.1" xmlns="http://www.w3.org/2000/svg">
    <path d="M12,2 C6.48,2 2,6.48 2,12 C2,17.52 6.48,22 12,22 C17.52,22 22,17.52 22,12 C22,6.48 17.52,2 12,2 Z M12,20 C7.58,20 4,16.42 4,12 C4,7.58 7.58,4 12,4 C16.42,4 20,7.58 20,12 C20,16.42 16.42,20 12,20 Z" fill="#6366F1"/>
    <path d="M12,7 C10.34,7 9,8.34 9,10 C9,11.66 10.34,13 12,13 C13.66,13 15,11.66 15,10 C15,8.34 13.66,7 12,7 Z" fill="#6366F1"/>
</svg>